 <svg  version="1.0" xmlns="http://www.w3.org/2000/svg"  width="64.000000pt" height="65.000000pt" viewBox="0 0 64.000000 65.000000"  preserveAspectRatio="xMidYMid meet">  <g transform="translate(0.000000,65.000000) scale(0.100000,-0.100000)" fill="#ffffff" stroke="none"> <path d="M197 569 c-83 -44 -116 -97 -111 -179 4 -69 43 -163 80 -192 30 -24 31 -36 2 -40 -17 -2 -27 -14 -37 -47 -13 -42 -53 -87 -90 -103 -10 -4 -2 -7 21 -7 20 -1 40 4 44 11 5 7 3 8 -6 3 -8 -5 -11 -3 -8 6 3 8 14 15 26 17 12 2 22 8 22 13 0 15 39 53 47 46 3 -4 -2 -14 -13 -21 -19 -15 -19 -15 1 -30 24 -17 16 -29 -20 -29 -14 0 -27 -3 -30 -7 -8 -12 49 -9 67 4 10 7 27 25 39 40 20 26 20 27 3 24 -11 -2 -18 2 -17 9 2 7 -6 17 -17 23 -21 11 -28 40 -10 40 6 0 10 6 10 14 0 10 10 13 35 11 27 -3 35 0 35 13 0 12 -3 13 -11 5 -17 -17 -75 14 -90 49 -6 15 -16 28 -21 28 -5 0 -7 4 -4 8 3 5 -2 21 -10 36 -18 37 -18 55 1 30 12 -16 14 -17 15 -2 0 9 -9 19 -19 23 -12 4 -18 14 -17 30 0 14 4 25 7 25 3 0 6 15 7 33 1 21 9 39 27 55 28 24 45 28 45 11 0 -5 5 -7 11 -4 6 4 8 9 5 12 -8 8 21 33 38 33 8 0 18 5 21 10 3 6 13 10 21 10 8 0 12 -5 9 -11 -5 -7 3 -9 22 -6 34 5 106 -21 96 -36 -4 -6 -1 -7 6 -2 7 4 22 -2 37 -16 18 -17 21 -25 12 -31 -8 -5 -3 -8 15 -8 15 0 27 -1 27 -3 0 -1 -4 -18 -10 -36 -7 -25 -6 -39 2 -48 9 -11 8 -17 -3 -24 -10 -6 -10 -9 -1 -9 6 0 12 -10 11 -22 0 -22 -1 -22 -10 -3 -9 19 -9 18 -5 -3 3 -15 -2 -26 -16 -33 -28 -15 -48 -4 -48 26 0 18 5 25 20 25 11 0 20 5 20 10 0 13 -16 13 -41 0 -11 -6 -69 -12 -129 -14 -60 -1 -113 -5 -116 -9 -7 -7 129 -13 199 -8 34 2 37 0 37 -23 0 -23 4 -26 35 -26 19 0 35 -5 35 -11 0 -7 10 -9 25 -6 35 6 55 -27 26 -43 -11 -5 -27 -10 -37 -10 -9 0 -32 -15 -50 -34 l-34 -35 43 3 c23 2 52 6 65 10 31 10 28 -14 -4 -38 -27 -19 -42 -19 -132 6 -29 9 -55 12 -57 7 -6 -8 39 -24 98 -34 45 -7 56 -28 32 -55 -10 -11 -15 -23 -11 -27 4 -4 11 -1 17 7 8 13 10 13 20 0 8 -12 9 -10 4 7 -5 18 -3 22 9 17 9 -3 13 -10 10 -15 -7 -13 19 -21 53 -17 26 4 24 6 -27 29 l-55 25 43 29 c33 21 42 33 38 48 -2 11 0 27 5 36 7 10 8 38 2 76 -7 54 -6 61 15 82 24 24 31 81 10 80 -46 -1 -68 5 -68 18 0 8 5 15 10 15 6 0 10 5 10 10 0 6 -5 10 -12 10 -6 0 -27 18 -46 40 -45 53 -115 88 -188 94 -52 5 -66 2 -117 -25z m393 -189 c7 0 9 -8 5 -22 -12 -38 -23 -42 -30 -9 -4 17 -15 33 -26 36 -10 4 -19 13 -19 21 0 12 6 11 29 -5 16 -12 34 -21 41 -21z m-32 -71 c2 -16 -4 -28 -18 -37 -31 -19 -40 -6 -21 32 18 40 35 42 39 5z m12 -129 c0 -5 -12 -10 -26 -10 -14 0 -23 -4 -19 -10 4 -6 -5 -10 -20 -10 -17 0 -25 5 -23 12 7 21 88 37 88 18z m-403 -76 c-9 -9 -28 6 -21 18 4 6 10 6 17 -1 6 -6 8 -13 4 -17z m49 -35 c8 -14 -18 -31 -30 -19 -9 9 0 30 14 30 5 0 12 -5 16 -11z"/> <path d="M160 461 c0 -6 4 -12 10 -16 5 -3 7 -12 4 -20 -3 -8 1 -24 10 -37 9 -12 16 -18 16 -12 0 5 -5 15 -11 21 -7 7 -8 13 0 17 7 5 7 14 -1 31 -11 25 -28 34 -28 16z"/> <path d="M416 461 c-4 -5 3 -7 14 -4 23 6 26 13 6 13 -8 0 -17 -4 -20 -9z"/> <path d="M422 420 c-12 -12 -22 -25 -22 -30 0 -11 69 31 70 43 0 14 -26 7 -48 -13z"/> <path d="M460 396 c0 -8 5 -18 10 -21 6 -3 10 3 10 14 0 12 -4 21 -10 21 -5 0 -10 -6 -10 -14z"/> <path d="M177 303 c-4 -3 -7 -16 -6 -27 0 -20 1 -20 10 2 9 24 37 25 31 2 -4 -18 26 -60 43 -60 11 0 10 5 -6 21 -11 11 -18 26 -16 32 7 21 -40 47 -56 30z"/> <path d="M240 306 c0 -2 8 -10 18 -17 15 -13 16 -12 3 4 -13 16 -21 21 -21 13z"/> <path d="M452 230 c-12 -10 -18 -21 -14 -24 10 -6 48 31 41 38 -2 2 -14 -4 -27 -14z"/> <path d="M0 230 c0 -5 5 -10 11 -10 7 0 34 -16 60 -35 27 -19 52 -35 55 -35 13 0 -15 31 -53 59 -43 31 -73 40 -73 21z"/> <path d="M276 108 c3 -4 9 -8 15 -8 5 0 9 4 9 8 0 5 -7 9 -15 9 -8 0 -12 -4 -9 -9z"/> <path d="M246 51 c-3 -4 5 -18 18 -31 18 -16 29 -19 41 -12 15 8 14 12 -13 31 -33 23 -38 25 -46 12z m54 -33 c0 -12 -10 -9 -26 6 -20 21 -17 28 6 14 11 -7 20 -16 20 -20z"/> <path d="M395 39 c19 -13 19 -13 -5 -20 l-25 -7 26 -1 c15 -1 32 6 39 14 10 12 10 15 -3 15 -8 0 -24 3 -34 6 -15 5 -15 4 2 -7z"/> <path d="M217 24 c-11 -11 3 -24 25 -24 17 0 18 2 8 15 -13 16 -23 19 -33 9z"/> </g> </svg> 